PathFileType	4	(X/Y/Z)	c:/Users/goper/Files/vsCode/490R/osim_files/C11/C11_RoM_01.trc
DataRate	CameraRate	NumFrames	NumMarkers	Units                	OrigDataRate	OrigDataStartFrame	OrigNumFrames
120.00	120.00	6	36	mm	120.0	824	2195
                Frame#	Time	LPSI			LASI			LTH1			LTH2			LTH3			LTH4			LLFE			LMFE			LSH1			LSH2			LSH3			LSH4			LLMA			LMMA			LCAL			LMTP			LTOE			LMTP			RPSI			RASI			RTH1			RTH2			RTH3			RTH4			RLFE			RMFE			RSH1			RSH2			RSH3			RSH4			RLMA			RMMA			RCAL			RMTP			RTOE			RMTP		
		X1	Y1	Z1	X2	Y2	Z2	X3	Y3	Z3	X4	Y4	Z4	X5	Y5	Z5	X6	Y6	Z6	X7	Y7	Z7	X8	Y8	Z8	X9	Y9	Z9	X10	Y10	Z10	X11	Y11	Z11	X12	Y12	Z12	X13	Y13	Z13	X14	Y14	Z14	X15	Y15	Z15	X16	Y16	Z16	X17	Y17	Z17	X18	Y18	Z18	X19	Y19	Z19	X20	Y20	Z20	X21	Y21	Z21	X22	Y22	Z22	X23	Y23	Z23	X24	Y24	Z24	X25	Y25	Z25	X26	Y26	Z26	X27	Y27	Z27	X28	Y28	Z28	X29	Y29	Z29	X30	Y30	Z30	X31	Y31	Z31	X32	Y32	Z32	X33	Y33	Z33	X34	Y34	Z34	X35	Y35	Z35	X36	Y36	Z36

824	6.85833	-391.63257	1022.00238	365.69501	-241.09334	986.46313	265.82483	-293.08548	619.07526	210.07333	-278.05798	574.08990	214.32693	-234.50816	632.26044	197.34344	-228.27145	586.56860	206.52560	-256.98380	501.04355	218.19391	-223.63843	513.47461	323.27515	-310.37180	402.60678	220.21111	-314.28735	358.29694	222.83128	-249.81630	392.08481	209.09077	-261.31439	349.08035	213.03986	-312.41467	94.25899	290.39148	-277.25763	113.25394	381.81927	-368.21091	61.00406	351.09100	-203.65048	38.18315	253.20003	-127.26961	54.64300	317.60632	-164.96519	45.81131	366.59314	-364.90158	1017.93585	448.41916	-200.91437	939.65558	483.63681	-229.30501	604.93585	587.97290	-213.44809	564.09265	589.04706	-170.13196	621.70001	579.06714	-163.96878	578.77814	582.32404	-178.56900	508.04297	588.70471	-202.95741	467.57150	486.02301	-253.13057	420.42990	626.70068	-258.66824	375.46527	635.19611	-193.54193	404.83871	622.21497	-207.81583	361.05588	633.08374	-305.28223	102.16547	655.33905	-275.81842	101.48150	558.10382	-366.74197	60.32016	610.84070	-150.33293	48.79163	592.58887	-147.65352	63.39512	641.72345	-190.52359	40.56538	701.62830
825	6.86667	-389.19272	1021.76208	363.71478	-238.31461	987.63000	263.91772	-291.18027	619.12549	208.51239	-276.40109	574.09161	212.81268	-232.55548	631.95551	195.82281	-226.61562	586.31226	205.09587	-255.82263	500.75986	216.96378	-222.49748	513.35632	322.01331	-310.06793	402.27551	219.48450	-313.52158	358.10345	221.99182	-248.95868	391.75125	208.14938	-260.64825	348.81326	212.21500	-312.30872	94.22379	290.27850	-277.20718	113.35847	381.67517	-368.13739	61.10556	351.06271	-203.62416	38.16438	253.16977	-127.22121	54.54565	317.59634	-164.90598	45.81003	366.55899	-362.45773	1017.51318	446.34293	-198.67256	940.25385	481.47144	-227.91383	605.33942	586.73193	-212.19424	564.36365	588.13843	-168.66856	621.61420	578.13214	-162.60970	578.83557	581.43744	-177.54108	507.93771	587.88727	-201.67949	467.14938	485.25919	-252.51208	420.59244	626.02570	-258.20602	375.69461	634.64874	-192.94194	404.78436	621.78186	-207.34450	361.10666	632.78027	-305.22440	102.21955	655.40076	-275.75592	101.51411	558.25275	-366.72388	60.39932	610.86646	-150.35410	48.79198	592.61798	-147.63141	63.31760	641.77911	-190.52628	40.46910	701.68982
826	6.87500	-386.67297	1021.52167	361.84167	-235.56615	988.80249	262.12234	-289.43207	619.16498	207.04710	-274.90579	573.97931	211.38483	-230.69048	631.67529	194.33795	-225.03972	585.97748	203.70152	-254.64932	500.60291	215.83134	-221.32968	513.24866	320.80148	-308.64914	402.34512	218.30322	-312.74454	358.03970	221.20232	-248.08777	391.37598	207.18007	-259.81485	348.54675	211.35547	-312.19708	94.21105	290.15900	-277.17920	113.45453	381.54993	-368.09961	61.22157	351.01544	-203.64659	38.16798	253.14554	-127.21484	54.43594	317.60352	-164.90459	45.79718	366.55798	-359.83023	1017.09741	444.54501	-195.62666	941.03186	479.51486	-226.47388	605.62976	585.61639	-211.03461	564.67023	587.28632	-167.19247	621.66693	577.04614	-161.37910	578.87823	580.63519	-176.63699	507.89963	587.22058	-200.38550	466.75113	484.60416	-251.98941	420.68866	625.48041	-257.75912	375.84274	634.20105	-192.41634	404.73425	621.50488	-206.95187	361.11331	632.53113	-305.25992	102.25404	655.49146	-275.70184	101.56373	558.41754	-366.75156	60.45254	610.94196	-150.49054	48.65427	592.81879	-147.66927	63.24066	641.88580	-190.54228	40.38898	701.78351
827	6.88333	-383.83331	1021.23499	360.06689	-232.75479	989.98273	260.39731	-287.51215	619.29248	205.66779	-273.20978	574.15369	210.11528	-228.79224	631.45654	192.97278	-223.22658	585.80835	202.41013	-253.45804	500.42050	214.67131	-220.06522	513.19318	319.59650	-307.67935	402.22238	217.45081	-311.91333	357.98395	220.48813	-247.27214	391.12552	206.35486	-258.97986	348.33255	210.60010	-312.09753	94.23713	290.04407	-277.06924	113.61749	381.38998	-367.00888	60.95869	351.12259	-203.63095	38.18375	253.11377	-127.14828	54.36170	317.59216	-164.86307	45.80621	366.56451	-357.20978	1016.81012	442.72339	-192.44598	941.85516	477.58438	-225.12033	605.92169	584.43646	-209.80276	564.89001	586.24713	-165.75996	621.66547	576.08197	-160.08107	578.85980	579.92560	-175.60909	507.83688	586.61816	-199.20494	466.38312	483.96796	-251.30055	420.76834	625.04041	-257.19247	375.98685	633.78802	-191.69537	404.75104	621.23157	-206.43875	361.13550	632.33423	-305.24701	102.26643	655.55939	-275.64377	101.62901	558.59070	-366.77026	60.49805	610.96088	-150.49747	48.72777	592.83850	-147.64131	63.22586	641.96997	-190.55713	40.34045	701.89508
828	6.89167	-381.38272	1020.95691	358.37259	-229.92535	991.12341	258.81100	-285.64142	619.44208	204.30782	-271.56705	574.16180	208.87601	-226.78087	631.28601	191.64919	-221.46027	585.60657	201.14629	-252.14247	500.41949	213.49950	-218.73537	513.13989	318.52942	-306.68958	402.18356	216.71475	-311.00623	357.98187	219.79338	-246.19218	390.87759	205.55121	-258.13385	348.13104	209.88310	-311.94260	94.28447	289.89847	-276.88272	113.76445	381.22479	-367.93250	61.53972	350.86713	-203.58438	38.05007	253.20110	-127.02319	54.26561	317.58145	-164.77267	45.82488	366.56693	-354.54016	1016.42993	441.00882	-189.13573	942.67792	475.78143	-223.69383	606.18915	583.34033	-208.59506	565.07043	585.48401	-164.05603	621.79388	574.92975	-158.75142	578.80273	579.22900	-174.65308	507.70816	585.99744	-198.02975	466.05142	483.33484	-250.44252	420.89499	624.57617	-256.48853	376.06802	633.48572	-190.96028	404.73096	620.90381	-205.78867	361.16208	632.12988	-305.17145	102.29261	655.59900	-275.55493	101.71668	558.76434	-366.71613	60.56902	610.96442	-150.34590	48.90067	592.77258	-147.62039	63.19441	642.03595	-190.50938	40.29334	701.94910
829	6.90000	-378.71469	1020.68146	356.75836	-227.06154	992.23193	257.26944	-283.71072	619.53369	203.05260	-269.84030	574.26465	207.67445	-224.78389	631.04279	190.40010	-219.77592	585.34363	199.93590	-250.77248	500.18423	212.65645	-217.37822	513.07745	317.51947	-305.58139	402.18372	215.95807	-310.21216	357.93793	219.21379	-245.24727	390.61862	204.79420	-257.32230	347.90936	209.26311	-311.76993	94.34355	289.76941	-276.79395	113.89296	381.07892	-367.83154	61.77007	350.74554	-203.52173	38.06612	253.18483	-126.93064	54.10664	317.56528	-164.72441	45.77847	366.55505	-351.95178	1016.16467	439.51837	-185.35156	943.56329	474.08127	-222.25336	606.47968	582.36066	-207.35242	565.27197	584.64923	-161.71219	620.25018	572.84979	-157.57404	578.66193	578.48749	-173.75650	507.57254	585.39142	-196.91191	465.68570	482.72491	-249.72958	420.97479	624.25000	-255.89622	376.21680	633.18817	-190.27681	404.57736	620.66357	-205.17708	361.14291	631.88928	-305.18448	102.31901	655.62720	-275.46378	101.81739	558.89508	-366.74081	60.67850	610.95929	-150.47578	48.82058	592.87421	-147.59486	63.15902	642.07446	-190.51117	40.24894	701.96442
